<?xml version="1.0" encoding="UTF-8"?>
<svg width="107px" height="39px" viewBox="0 0 107 39" version="1.1" xmlns="http://www.w3.org/2000/svg" xmlns:xlink="http://www.w3.org/1999/xlink">
    <!-- Generator: Sketch 51.2 (57519) - http://www.bohemiancoding.com/sketch -->
    <title>logo</title>
    <desc>Created with Sketch.</desc>
    <defs></defs>
    <g id="Symbols" stroke="none" stroke-width="1" fill="none" fill-rule="evenodd">
        <g id="components-/-header-/-1440" transform="translate(-24.000000, -64.000000)">
            <g id="header-1440" transform="translate(0.000000, -1.000000)">
                <g id="logo" transform="translate(24.000000, 65.000000)">
                    <path d="M70.8082492,31.4345922 C70.5277671,31.8294612 70.388553,32.3469151 70.388553,33.0152077 C70.388553,34.4718711 70.9200769,35.2005447 71.9584771,35.2005447 C72.435,35.2005447 72.8279946,34.989325 73.1077921,34.6258997 C73.3873613,34.2611072 73.5274883,33.7122096 73.5274883,33.0152077 C73.5274883,31.5854308 72.9955079,30.8886567 71.9584771,30.8886567 C71.4819541,30.8886567 71.0882749,31.0704833 70.8082492,31.4345922 M67.9210403,30.3108218 L67.2758629,31.4345922 C66.910483,31.0704833 66.4346447,30.9189611 65.8166254,30.9189611 C65.2269054,30.9189611 64.7775406,31.1007877 64.4438832,31.4958846 C64.107259,31.8907537 63.9372352,32.4068404 63.9372352,33.104526 C63.9372352,34.4718711 64.5824127,35.1720631 65.9006103,35.1720631 C66.4901021,35.1720631 66.9951525,34.9583371 67.4153052,34.5955953 L67.9760413,35.8080005 C67.5271329,36.0818796 67.1348231,36.2662126 66.8007093,36.3254544 C66.4901021,36.4163677 66.0678954,36.445305 65.6187588,36.445305 C64.6102555,36.445305 63.7987058,36.1445392 63.2103551,35.56716 C62.6201787,34.9583371 62.3403812,34.1380667 62.3403812,33.104526 C62.3403812,32.0744031 62.6491626,31.2245118 63.2911449,30.6136382 C63.9372352,29.9765616 64.835052,29.6735172 65.9291378,29.6735172 C66.7151268,29.6735172 67.3598478,29.8863318 67.9210403,30.3108218 M74.2851781,30.5842452 C74.8452295,31.1324593 75.1275374,31.9807556 75.1275374,33.0152077 C75.1275374,34.0763185 74.8452295,34.8970446 74.2573353,35.5045004 C73.6968274,36.1445392 72.9373119,36.445305 71.9584771,36.445305 C70.9486044,36.445305 70.1623871,36.1445392 69.6304067,35.5045004 C69.0692142,34.8970446 68.7891885,34.049204 68.7891885,33.0152077 C68.7891885,32.0124271 69.0692142,31.2245118 69.6575649,30.6136382 C70.246372,29.9765616 71.0040618,29.6735172 71.9584771,29.6735172 C72.9669804,29.6735172 73.7239856,29.9765616 74.2851781,30.5842452 M82.1656083,29.8560274 C82.5017761,29.7329868 82.8386285,29.6735172 83.2019545,29.6735172 C83.9331707,29.6735172 84.492994,29.8863318 84.9138313,30.2807452 C85.3052283,30.7077415 85.5307095,31.2527656 85.5307095,31.9807556 L85.5307095,36.3254544 L83.9874871,36.3254544 L83.9874871,32.1935701 C83.9874871,31.3448182 83.5963183,30.9189611 82.8094164,30.9189611 C82.5859892,30.9189611 82.3621055,30.9797978 82.1370808,31.1324593 C81.9405835,31.2527656 81.800913,31.405427 81.687716,31.5854308 L81.687716,36.3254544 L80.1737057,36.3254544 L80.1737057,31.9807556 C80.1737057,31.6471789 80.061878,31.3746669 79.8669783,31.1928403 C79.6707093,31.0094187 79.3874885,30.9189611 79.0255319,30.9189611 C78.8276653,30.9189611 78.6044663,30.9797978 78.3783005,31.1324593 C78.1571555,31.2819308 77.9871317,31.4345922 77.875304,31.5854308 L77.875304,36.3254544 L76.3610655,36.3254544 L76.3610655,29.7961021 L77.4001503,29.7961021 L77.7344924,30.3721142 C78.1571555,29.8863318 78.6875383,29.6735172 79.3874885,29.6735172 C80.2565495,29.6735172 80.9030963,29.9184591 81.3536022,30.3721142 C81.547589,30.1581603 81.800913,29.9765616 82.1656083,29.8560274 M56.4228696,33.8359337 C56.4228696,32.8023931 57.1796465,31.9807556 58.1043932,31.9807556 C59.0035793,31.9807556 59.7612691,32.8023931 59.7612691,33.8359337 C59.7612691,34.8366636 59.0035793,35.6560226 58.1043932,35.6560226 C57.1796465,35.6560226 56.4228696,34.8366636 56.4228696,33.8359337 M54.459951,30.0059546 L54.459951,36.1741601 C54.459951,36.964126 55.0779703,37.6018862 55.8053068,37.6018862 L87.5782976,37.6018862 C88.3060906,37.6018862 88.9234252,36.964126 88.9234252,36.1741601 L88.9234252,30.0059546 C88.9234252,29.2198621 88.3060906,28.5486075 87.5782976,28.5486075 L55.8053068,28.5486075 C55.0779703,28.5486075 54.459951,29.2198621 54.459951,30.0059546" id="Fill-1" fill="#000000"></path>
                    <path d="M103.220012,22.3469451 C103.048163,22.8762474 102.876998,23.4076003 102.672285,23.9255099 C102.650832,23.981106 102.439729,24.5425355 102.40755,24.5375228 C102.39089,24.5331936 102.372632,24.5286365 102.3562,24.5249909 C102.085075,24.4668884 101.812124,24.4094694 101.541684,24.3520505 C100.459009,24.1230584 99.3779319,23.8901927 98.2954853,23.6616563 C97.3374185,23.4572722 96.3788953,23.2535718 95.4206003,23.050327 C95.3954961,22.5285439 95.3954961,22.0088114 95.3744999,21.4870283 C95.3505368,20.956359 95.4251647,20.4295631 95.4194592,19.9002608 C97.1142196,20.2851044 98.8085235,20.6717707 100.503512,21.0559307 C101.472762,21.2776315 102.443609,21.4995602 103.412858,21.7185269 C103.34599,21.9261008 103.281632,22.1361812 103.220012,22.3469451 M95.8042378,15.9841533 C96.0379349,14.8533194 96.2170875,13.7145107 96.4879844,12.5921074 C96.6233187,12.0288551 96.7926578,11.4785904 96.971354,10.9296928 C97.0112924,10.8020951 97.4031458,9.5352331 97.4435408,9.54411937 C98.2304427,9.72138891 99.0143777,9.90002557 99.8019643,10.075928 C100.776463,10.2955782 101.753928,10.5159119 102.729796,10.7360178 L95.7145474,16.6565472 C95.7435314,16.4314285 95.7738846,16.2067656 95.8042378,15.9841533 M98.7307005,6.59137383 C99.256519,5.69112708 99.7759473,4.80272868 100.53067,4.07268804 C101.114456,3.50943571 102.019348,2.91314471 102.795524,3.48733398 C103.460328,3.97812909 103.824339,4.8829329 104.081314,5.63439171 C104.425926,6.63193164 104.623108,7.7265369 104.718047,8.77443232 C102.605873,8.26973818 100.483885,7.80605756 98.3666899,7.32460441 C98.4883311,7.07989041 98.6113415,6.83563212 98.7307005,6.59137383 M97.5907425,17.8420657 L104.86251,11.3077007 C104.873921,12.6395008 104.833298,13.9733516 104.683586,15.2958097 C104.533418,16.6282934 104.293787,17.9550808 104.019466,19.2661463 C102.246883,18.8731 100.475669,18.4818766 98.704227,18.0881468 C98.3333698,18.0074869 97.9611433,17.9247763 97.5907425,17.8420657 M102.844134,0.136301596 C101.239521,-0.204338467 99.8740818,0.748998004 98.9196665,1.94909915 C97.819647,3.33034334 97.0902565,5.0134926 96.4975696,6.66086896 C95.7108959,8.84643383 95.15655,11.1240513 94.7268121,13.4048587 C94.2845221,15.749237 94.0108865,18.126654 93.9326071,20.5122737 C93.8933533,21.688906 93.8951791,22.8726017 93.9622757,24.0478669 C93.9962805,24.6302589 94.0512814,25.2106002 94.1345817,25.7884351 C94.1745201,26.0643649 94.2217616,26.3393834 94.2781319,26.6128068 C94.304149,26.7495186 94.3331329,26.8857746 94.3659965,27.0208914 C94.3956651,27.0516515 94.5234682,27.0094987 94.5561037,27.001296 C95.5773873,26.7836965 96.6831123,26.7331132 97.7260769,26.8044311 C98.8457233,26.8796226 99.881613,27.2202626 100.855427,27.7759958 C101.090493,27.9097455 101.321224,28.0523814 101.544879,28.2039035 C101.660586,28.2841077 101.77424,28.3654512 101.885383,28.4486175 C101.988538,28.5226697 102.069328,28.6233807 102.181841,28.6796604 C102.476929,28.2121062 102.739382,27.7299695 102.978099,27.232111 C103.458274,26.2366217 103.84214,25.1980683 104.192001,24.1506286 C104.935313,21.9443291 105.501982,19.6844842 105.899541,17.3904613 C106.305316,15.0586149 106.565487,12.6962362 106.63943,10.3315789 C106.704701,8.3228279 106.637148,6.26713917 106.160625,4.30760436 C105.732028,2.53012401 104.812759,0.555323051 102.844134,0.136301596" id="Fill-3" fill="#000000"></path>
                    <path d="M16.5724101,26.8800327 L2.243629,26.8800327 C1.6262944,26.8800327 1.09294469,26.6692688 0.644949196,26.2440953 C0.223655418,25.8175547 0,25.3310888 0,24.7853811 C0,24.1751911 0.252867555,23.387048 0.785076163,22.3858624 L11.0481212,2.67203078 L5.66464402,2.67203078 C4.29053252,2.67203078 3.33634547,2.91492196 2.83266434,3.37176699 C2.32715745,3.82656135 2.04735996,4.73751719 2.0190607,6.16478766 L0.309009629,6.16478766 L0.309009629,0 L13.1516233,0 C15.0866991,0 16.0678161,0.789965952 16.0678161,2.33822631 C16.0678161,2.79370422 15.9288302,3.34009544 15.6186795,3.91747465 L5.01946661,24.2376228 L16.5724101,24.2376228 L16.5724101,26.8800327 Z" id="Fill-6" fill="#231F20"></path>
                    <path d="M26.006803,22.3410428 L26.006803,18.6350156 C23.0607134,18.8154751 21.5747742,19.9107639 21.5747742,21.9757946 C21.5747742,23.6149683 22.1359667,24.4648596 23.2588082,24.4648596 C24.4633524,24.4648596 25.3607127,23.7384646 26.006803,22.3410428 L26.006803,22.3410428 Z M30.1277682,24.6792691 L28.1646214,24.6792691 C27.3247724,24.6792691 26.6236812,24.8893495 26.0896468,25.3475616 C25.0245449,26.1682877 24.4921081,26.6244492 24.4355096,26.6547536 C23.7622611,27.0792436 22.9776414,27.2913746 22.1081239,27.2913746 C20.7063978,27.2913746 19.5287836,26.8352131 18.5755094,25.9240294 C17.6213224,25.0137572 17.1447994,23.9202912 17.1447994,22.64272 C17.1447994,18.9082112 20.1166778,16.8728014 26.006803,16.5699849 L26.006803,14.8683796 C26.006803,13.2298895 25.8929213,12.0448266 25.6131238,11.313191 C25.3607127,10.5842897 24.8851026,10.2215479 24.2392405,10.2215479 C23.5947478,10.2215479 23.1449265,10.5257315 22.9500268,11.1933404 C22.9219558,11.223417 22.8094434,11.9220139 22.6131744,13.2298895 C22.4162207,14.5334359 21.6313727,15.2336278 20.2011191,15.2336278 L17.930332,12.8935786 C17.9860176,11.4676753 18.5755094,10.3136004 19.6958405,9.46143063 C20.8474377,8.58123494 22.3607633,8.15674501 24.2673116,8.15674501 C26.3993411,8.15674501 27.9124385,8.70245267 28.8095706,9.73644907 C29.6790881,10.7982435 30.1277682,12.5889393 30.1277682,15.0816499 L30.1277682,24.6792691 Z" id="Fill-8" fill="#231F20"></path>
                    <path d="M36.3109132,19.0932278 C36.3109132,22.7967486 37.3205576,24.6202552 39.3115473,24.6202552 C41.2457102,24.6202552 42.2001255,22.2820289 42.2001255,17.6326908 C42.2001255,13.1706477 41.2751506,10.9208284 39.3946193,10.9208284 C38.1334766,10.9208284 37.0959893,12.1669558 36.3109132,14.6870087 L36.3109132,19.0932278 Z M32.2725636,11.4679031 L32.8061415,11.4679031 C33.0576397,11.4993468 33.2262942,11.4993468 33.3109637,11.4993468 C34.4600505,11.4993468 35.2177403,11.3466854 35.6399469,11.0427297 C36.3394407,10.404058 37.0679183,9.76743706 37.8251516,9.0993724 C38.6380706,8.46092861 39.5637302,8.15674501 40.600761,8.15674501 C42.4806076,8.15674501 43.9665469,8.97815466 45.0594916,10.6772536 C46.152208,12.378859 46.7149981,14.7184524 46.7149981,17.7254269 C46.7149981,20.8251376 46.1255063,23.2239727 44.9755067,24.9255781 C43.8257352,26.5957397 42.2001255,27.4447196 40.1249227,27.4447196 C38.5540857,27.4447196 37.2915737,26.8065037 36.3109132,25.5628826 L36.3109132,32.790604 C36.3109132,33.4285921 36.1151006,33.9467295 35.7499489,34.371903 C35.3583237,34.7970765 34.8813443,35.0078404 34.3208364,35.0078404 C33.7311164,35.0078404 33.2539088,34.7970765 32.8618271,34.3422821 C32.469289,33.9164251 32.2725636,33.3989712 32.2725636,32.790604 L32.2725636,11.4679031 Z" id="Fill-10" fill="#231F20"></path>
                    <path d="M52.4469667,19.0932278 C52.4469667,22.7967486 53.4289966,24.6202552 55.4460033,24.6202552 C57.3813073,24.6202552 58.3345815,22.2820289 58.3345815,17.6326908 C58.3345815,13.1706477 57.3813073,10.9208284 55.5030583,10.9208284 C54.242372,10.9208284 53.2324993,12.1669558 52.4469667,14.6870087 L52.4469667,19.0932278 Z M48.4088453,11.4679031 L48.9405975,11.4679031 C49.1658505,11.4993468 49.333592,11.4993468 49.4463326,11.4993468 C50.5956476,11.4993468 51.3528809,11.3466854 51.7739465,11.0427297 C52.4734402,10.404058 53.2046565,9.76743706 53.9319931,9.0993724 C54.7743524,8.46092861 55.700012,8.15674501 56.7347606,8.15674501 C58.5876773,8.15674501 60.0743012,8.97815466 61.168387,10.6772536 C62.2615599,12.378859 62.7935403,14.7184524 62.7935403,17.7254269 C62.7935403,20.8251376 62.2323477,23.2239727 61.0830327,24.9255781 C59.9056467,26.5957397 58.3345815,27.4447196 56.2612045,27.4447196 C54.6892264,27.4447196 53.4289966,26.8065037 52.4469667,25.5628826 L52.4469667,32.790604 C52.4469667,33.4285921 52.2511541,33.9467295 51.8574749,34.371903 C51.4930079,34.7970765 51.0164849,35.0078404 50.4288189,35.0078404 C49.8667135,35.0078404 49.3901905,34.7970765 48.9974242,34.3422821 C48.6053426,33.9164251 48.4088453,33.3989712 48.4088453,32.790604 L48.4088453,11.4679031 Z" id="Fill-12" fill="#231F20"></path>
                    <path d="M74.3882477,19.4256651 C74.3882477,16.5984666 74.3035782,14.7145789 74.1634512,13.8665105 C73.7992124,11.4679031 72.9011674,10.2520801 71.528197,10.2520801 C70.4612694,10.2520801 69.7049489,10.8588524 69.2562687,12.1038405 C68.8075886,13.3196635 68.5827921,15.2338556 68.5827921,17.875582 C68.5827921,20.4250279 68.8075886,22.2496738 69.2012678,23.3727607 C69.6485786,24.5890394 70.403758,25.196723 71.4996695,25.196723 C73.4055332,25.196723 74.3882477,23.2832145 74.3882477,19.4256651 M78.4275102,17.875582 C78.4275102,24.1335615 76.0982988,27.2913746 71.4996695,27.2913746 C66.8725128,27.2913746 64.5451271,24.1335615 64.5451271,17.875582 C64.5451271,11.4059272 66.8725128,8.15674501 71.4996695,8.15674501 C73.6294168,8.15674501 75.3134508,9.00709198 76.5755064,10.7364954 C77.8069805,12.4381007 78.4275102,14.838303 78.4275102,17.875582" id="Fill-14" fill="#231F20"></path>
                    <path d="M88.2523588,12.8938065 C88.2523588,11.2849373 87.3819284,10.4949713 85.6428934,10.4949713 C84.1574106,10.4949713 83.4298459,11.1019714 83.4298459,12.3777197 C83.4298459,13.1683692 84.2142374,14.0476535 85.7832486,15.0818777 C86.5694659,15.5676601 87.4953536,16.2049646 88.5606837,16.9329546 C89.9907091,18.3021226 90.7200996,19.9431191 90.7200996,21.7944237 C90.7200996,23.403293 90.1860653,24.7394223 89.1211916,25.7437978 C88.0558615,26.7449834 86.68175,27.2296265 84.9719271,27.2296265 C83.4563194,27.2296265 82.2234759,26.9589372 81.2717993,26.3797352 C80.3169276,25.8032674 79.810736,25.0750496 79.810736,24.2554628 C79.810736,23.7386924 80.1754313,23.494662 80.9048218,23.494662 C81.1017755,23.494662 81.2971317,23.494662 81.4374869,23.5249664 C82.5585026,24.3475153 83.5973592,24.770866 84.5497205,24.770866 C86.149085,24.770866 86.9620039,24.1337893 86.9620039,22.8562182 C86.9620039,22.1569377 86.6534507,21.5519883 86.0368008,20.9734698 C85.7832486,20.7009577 84.9719271,20.1235785 83.5973592,19.1816347 C82.2234759,18.2408301 81.2421307,17.3891161 80.6802535,16.6312774 C80.0067769,15.7492588 79.6728913,14.7145789 79.6728913,13.5315667 C79.6728913,11.8313285 80.202133,10.5259593 81.2971317,9.58333193 C82.3624618,8.6413881 83.8773849,8.15674501 85.8692875,8.15674501 C86.7645938,8.15674501 88.0558615,8.39781337 89.7102269,8.88678566 L89.7102269,12.8938065 L88.2523588,12.8938065 Z" id="Fill-16" fill="#231F20"></path>
                    <path d="M96.4250504,38.1773029 C94.1159223,37.8683344 92.5037776,35.6953014 92.8241982,33.3306442 C93.1427931,30.9614299 95.2723121,29.294686 97.5800709,29.6054773 C99.891253,29.9167244 101.503854,32.0845167 101.186172,34.4505411 C100.867121,36.8208947 98.7366889,38.4878664 96.4250504,38.1773029 Z" id="Fill-18" fill="#000000"></path>
                </g>
            </g>
        </g>
    </g>
</svg>